<svg version="1.1" xmlns="http://www.w3.org/2000/svg" xmlns:xlink="http://www.w3.org/1999/xlink" width="317.08768" height="24.27654" viewBox="0,0,317.08768,24.27654"><g transform="translate(-81.08566,-167.9305)"><g data-paper-data="{&quot;isPaintingLayer&quot;:true}" fill-rule="nonzero" stroke="#000000" stroke-linejoin="miter" stroke-miterlimit="10" stroke-dasharray="" stroke-dashoffset="0" style="mix-blend-mode: normal"><path d="M242.78178,177.09772c1.60194,1.50182 8.10919,2.86426 8.10919,2.86426c0,0 -6.61313,1.40074 -8.04812,2.88202c-1.50502,1.55357 -2.80377,8.09419 -2.80377,8.09419c0,0 -1.35651,-6.67012 -2.85365,-8.16725c-1.44432,-1.44431 -8.0764,-2.84764 -8.0764,-2.84764c0,0 6.58502,-1.23112 8.04776,-2.74262c1.38095,-1.42698 2.81471,-8.0522 2.81471,-8.0522c0,0 1.39784,6.64507 2.81028,7.96923z" data-paper-data="{&quot;index&quot;:null}" fill="#000000" stroke-width="0.5" stroke-linecap="round"/><g><g fill="#000000" stroke-width="0.5" stroke-linecap="round"><path d="M281.17655,180.30317c0,0 -3.17625,0.9563 -4.44229,1.94797c-1.38918,1.08811 -3.30771,4.58156 -3.30771,4.58156l-16.0625,-6.47687z" data-paper-data="{&quot;index&quot;:null}"/><path d="M257.30155,179.87207l16.0625,-6.47687c0,0 1.91853,3.49345 3.30771,4.58156c1.26604,0.99167 4.44229,1.94797 4.44229,1.94797z" data-paper-data="{&quot;index&quot;:null}"/></g><path d="M382.52735,180.01172h-92.27778" fill="none" stroke-width="1.5" stroke-linecap="round"/><path d="M365.79078,170.989c0,0 -2.83789,3.57994 -7.42324,5.99311c-4.58535,2.41316 -9.18177,2.74577 -9.18177,2.74577c0,0 2.83788,-3.57994 7.42323,-5.99311c4.58535,-2.41316 9.18178,-2.74577 9.18178,-2.74577z" fill="#000000" stroke-width="0.5" stroke-linecap="butt"/><path d="M381.79078,171.15567c0,0 -2.83789,3.57994 -7.42324,5.99311c-4.58535,2.41316 -9.18177,2.74577 -9.18177,2.74577c0,0 2.83788,-3.57994 7.42323,-5.99311c4.58535,-2.41316 9.18178,-2.74577 9.18178,-2.74577z" fill="#000000" stroke-width="0.5" stroke-linecap="butt"/><path d="M397.62411,171.32233c0,0 -2.83789,3.57994 -7.42324,5.99311c-4.58535,2.41316 -9.18177,2.74577 -9.18177,2.74577c0,0 2.83788,-3.57994 7.42323,-5.99311c4.58535,-2.41316 9.18178,-2.74577 9.18178,-2.74577z" fill="#000000" stroke-width="0.5" stroke-linecap="butt"/><path d="M355.859,186.31544c-4.58535,-2.41317 -7.42323,-5.99311 -7.42323,-5.99311c0,0 4.59642,0.33261 9.18177,2.74577c4.58535,2.41317 7.42324,5.99311 7.42324,5.99311c0,0 -4.59643,-0.33261 -9.18178,-2.74577z" data-paper-data="{&quot;index&quot;:null}" fill="#000000" stroke-width="0.5" stroke-linecap="butt"/><path d="M371.859,186.14877c-4.58535,-2.41317 -7.42323,-5.99311 -7.42323,-5.99311c0,0 4.59642,0.33261 9.18177,2.74577c4.58535,2.41317 7.42324,5.99311 7.42324,5.99311c0,0 -4.59643,-0.33261 -9.18178,-2.74577z" data-paper-data="{&quot;index&quot;:null}" fill="#000000" stroke-width="0.5" stroke-linecap="butt"/><path d="M387.69233,185.98211c-4.58535,-2.41317 -7.42323,-5.99311 -7.42323,-5.99311c0,0 4.59642,0.33261 9.18177,2.74577c4.58535,2.41317 7.42324,5.99311 7.42324,5.99311c0,0 -4.59643,-0.33261 -9.18178,-2.74577z" data-paper-data="{&quot;index&quot;:null}" fill="#000000" stroke-width="0.5" stroke-linecap="butt"/><path d="M284.05903,179.98579l2.0809,-1.95285l1.95285,2.08091l-2.0809,1.95285z" fill="#000000" stroke-width="1.5" stroke-linecap="butt"/></g><g data-paper-data="{&quot;index&quot;:null}"><g fill="#000000" stroke-width="0.5" stroke-linecap="round"><path d="M221.89494,180.35583l-16.0625,6.47687c0,0 -1.91853,-3.49345 -3.30771,-4.58156c-1.26604,-0.99167 -4.44229,-1.94797 -4.44229,-1.94797z" data-paper-data="{&quot;index&quot;:null}"/><path d="M198.14494,179.92473c0,0 3.17625,-0.9563 4.44229,-1.94797c1.38918,-1.08811 3.30771,-4.58156 3.30771,-4.58156l16.0625,6.47687z" data-paper-data="{&quot;index&quot;:null}"/></g><path d="M96.73165,180.01172h92.27778" fill="none" stroke-width="1.5" stroke-linecap="round"/><path d="M122.64999,173.73477c4.58535,2.41317 7.42323,5.99311 7.42323,5.99311c0,0 -4.59642,-0.33261 -9.18177,-2.74577c-4.58535,-2.41317 -7.42324,-5.99311 -7.42324,-5.99311c0,0 4.59643,0.33261 9.18178,2.74577z" fill="#000000" stroke-width="0.5" stroke-linecap="butt"/><path d="M106.64999,173.90144c4.58535,2.41317 7.42323,5.99311 7.42323,5.99311c0,0 -4.59642,-0.33261 -9.18177,-2.74577c-4.58535,-2.41317 -7.42324,-5.99311 -7.42324,-5.99311c0,0 4.59643,0.33261 9.18178,2.74577z" fill="#000000" stroke-width="0.5" stroke-linecap="butt"/><path d="M90.81666,174.0681c4.58535,2.41317 7.42323,5.99311 7.42323,5.99311c0,0 -4.59642,-0.33261 -9.18177,-2.74577c-4.58535,-2.41317 -7.42324,-5.99311 -7.42324,-5.99311c0,0 4.59643,0.33261 9.18178,2.74577z" fill="#000000" stroke-width="0.5" stroke-linecap="butt"/><path d="M114.21821,189.06121c0,0 2.83789,-3.57994 7.42324,-5.99311c4.58535,-2.41316 9.18177,-2.74577 9.18177,-2.74577c0,0 -2.83788,3.57994 -7.42323,5.99311c-4.58535,2.41316 -9.18178,2.74577 -9.18178,2.74577z" data-paper-data="{&quot;index&quot;:null}" fill="#000000" stroke-width="0.5" stroke-linecap="butt"/><path d="M98.21821,188.89454c0,0 2.83789,-3.57994 7.42324,-5.99311c4.58535,-2.41316 9.18177,-2.74577 9.18177,-2.74577c0,0 -2.83788,3.57994 -7.42323,5.99311c-4.58535,2.41316 -9.18178,2.74577 -9.18178,2.74577z" data-paper-data="{&quot;index&quot;:null}" fill="#000000" stroke-width="0.5" stroke-linecap="butt"/><path d="M82.38488,188.72788c0,0 2.83789,-3.57994 7.42324,-5.99311c4.58535,-2.41316 9.18177,-2.74577 9.18177,-2.74577c0,0 -2.83788,3.57994 -7.42323,5.99311c-4.58535,2.41316 -9.18178,2.74577 -9.18178,2.74577z" data-paper-data="{&quot;index&quot;:null}" fill="#000000" stroke-width="0.5" stroke-linecap="butt"/><path d="M193.24711,182.0667l-2.0809,-1.95285l1.95285,-2.08091l2.0809,1.95284z" fill="#000000" stroke-width="1.5" stroke-linecap="butt"/></g></g></g></svg>