<svg version="1.1" xmlns="http://www.w3.org/2000/svg" xmlns:xlink="http://www.w3.org/1999/xlink" width="183.23333" height="46.50261" viewBox="0,0,183.23333,46.50261"><g transform="translate(-148.23753,-152.26933)"><g data-paper-data="{&quot;isPaintingLayer&quot;:true}" fill-rule="nonzero" stroke-linejoin="miter" stroke-miterlimit="10" stroke-dasharray="" stroke-dashoffset="0" style="mix-blend-mode: normal"><g fill="#000000" stroke-width="0.5" stroke-linecap="butt"><path d="M233.77463,180c0,-3.43818 2.78719,-6.22537 6.22537,-6.22537c3.43818,0 6.22537,2.7872 6.22537,6.22537c0,3.43818 -2.78719,6.22536 -6.22537,6.22536c-3.43818,0 -6.22537,-2.78719 -6.22537,-6.22536z" stroke="#000000"/><path d="M243.21529,167.70514c2.31563,-0.96861 3.98042,-5.11037 3.98042,-5.11037c0,0 2.09371,4.43758 -0.02764,6.19192c-2.13945,1.76931 -2.87865,5.58311 -2.87865,5.58311c0,0 -0.81754,-0.52126 -1.30013,-0.7865c-0.4397,-0.24167 -1.40004,-0.46708 -1.40004,-0.46708c0,0 -0.75443,-4.41535 1.62603,-5.41107z" stroke="none"/><path d="M248.19517,170.35229c2.50669,0.12985 5.80104,-2.88229 5.80104,-2.88229c0,0 -0.03477,4.90658 -2.70663,5.56908c-2.69467,0.66816 -5.01271,3.78556 -5.01271,3.78556c0,0 -0.51113,-0.8239 -0.83123,-1.27199c-0.29166,-0.40827 -1.05962,-1.02735 -1.05962,-1.02735c0,0 1.23229,-4.3065 3.80916,-4.17302z" stroke="none"/><path d="M251.60126,174.82096c2.19845,1.21128 6.47735,-0.06021 6.47735,-0.06021c0,0 -2.17358,4.39901 -4.86657,3.82845c-2.71598,-0.57543 -6.16252,1.21704 -6.16252,1.21704c0,0 -0.1001,-0.96439 -0.19244,-1.50728c-0.08413,-0.49464 -0.50473,-1.3869 -0.50473,-1.3869c0,0 2.98892,-3.33629 5.24891,-2.0911z" stroke="none"/><path d="M252.7162,180.35837c1.4306,2.06246 5.82861,2.82611 5.82861,2.82611c0,0 -3.90285,2.9738 -6.0613,1.26536c-2.17689,-1.72304 -6.06098,-1.64994 -6.06098,-1.64994c0,0 0.33914,-0.90832 0.49781,-1.43565c0.14458,-0.48046 0.16457,-1.46669 0.16457,-1.46669c0,0 4.16064,-1.65939 5.63129,0.46081z" stroke="none"/><path d="M251.37003,185.68066c0.4687,2.4659 4.17654,4.95138 4.17654,4.95138c0,0 -4.77468,1.13054 -6.05229,-1.30779c-1.28852,-2.45915 -4.86694,-3.97123 -4.86694,-3.97123c0,0 0.67908,-0.69204 1.03841,-1.10933c0.3274,-0.3802 0.74656,-1.27314 0.74656,-1.27314c0,0 4.47592,0.17517 4.95773,2.71011z" stroke="none"/><path d="M247.87874,189.95431c-0.60321,2.43649 1.72896,6.24262 1.72896,6.24262c0,0 -4.8108,-0.96533 -4.95419,-3.71436c-0.14462,-2.77251 -2.76543,-5.64005 -2.76543,-5.64005c0,0 0.90593,-0.34548 1.40663,-0.57472c0.4562,-0.20887 1.20977,-0.84539 1.20977,-0.84539c0,0 3.99437,2.0272 3.37426,4.5319z" stroke="none"/><path d="M242.68502,192.40562c-1.61419,1.92217 -1.19566,6.36632 -1.19566,6.36632c0,0 -3.89464,-2.98454 -2.81323,-5.516c1.09064,-2.55308 -0.00024,-6.28154 -0.00024,-6.28154c0,0 0.96552,0.0886 1.516,0.10318c0.50156,0.01328 1.4584,-0.22651 1.4584,-0.22651c0,0 2.69412,3.57858 1.03473,5.55456z" stroke="none"/><path d="M236.93344,192.29615c-2.29872,1.00809 -3.89241,5.17772 -3.89241,5.17772c0,0 -2.16931,-4.40111 -0.07829,-6.19148c2.10887,-1.80565 2.78272,-5.63154 2.78272,-5.63154c0,0 0.82634,0.50719 1.31339,0.76414c0.44377,0.23411 1.40781,0.44305 1.40781,0.44305c0,0 0.82986,4.4018 -1.53322,5.4381z" stroke="none"/><path d="M231.8875,189.74956c-2.50935,-0.05908 -5.71742,3.04478 -5.71742,3.04478c0,0 -0.10365,-4.90561 2.54846,-5.64322c2.67475,-0.74391 4.90393,-3.92545 4.90393,-3.92545c0,0 0.53416,0.80916 0.86678,1.24804c0.30305,0.39987 1.08818,0.99704 1.08818,0.99704c0,0 -1.11032,4.33955 -3.68992,4.27881z" stroke="none"/><path d="M228.35914,185.03634c-2.19135,-1.22406 -6.47758,0.02247 -6.47758,0.02247c0,0 2.19917,-4.38627 4.88879,-3.80003c2.71259,0.59125 6.1695,-1.1811 6.1695,-1.1811c0,0 0.09448,0.96496 0.18365,1.50838c0.08124,0.49512 0.49664,1.3898 0.49664,1.3898c0,0 -3.00831,3.31883 -5.261,2.06048z" stroke="none"/><path d="M227.30338,179.55431c-1.47379,-2.03181 -5.88694,-2.7025 -5.88694,-2.7025c0,0 3.83923,-3.05549 6.03326,-1.39295c2.21276,1.67673 6.09444,1.52171 6.09444,1.52171c0,0 -0.3199,0.91528 -0.46742,1.44584c-0.13441,0.4834 -0.13358,1.46982 -0.13358,1.46982c0,0 -4.12471,1.7468 -5.63976,-0.34191z" stroke="none"/><path d="M228.84543,173.90315c-0.35288,-2.48512 -3.94046,-5.14123 -3.94046,-5.14123c0,0 4.82232,-0.90607 5.98452,1.58933c1.17213,2.51671 4.67594,4.19445 4.67594,4.19445c0,0 -0.71071,0.65953 -1.08915,1.05956c-0.34481,0.36448 -0.80526,1.23684 -0.80526,1.23684c0,0 -4.46283,-0.38426 -4.82559,-2.93895z" stroke="none"/><path d="M232.39024,169.85081c0.66773,-2.4196 -1.56252,-6.28634 -1.56252,-6.28634c0,0 4.78347,1.09278 4.85378,3.84466c0.07091,2.77537 2.61463,5.71152 2.61463,5.71152c0,0 -0.9148,0.32129 -1.42141,0.53715c-0.46158,0.19668 -1.23179,0.81295 -1.23179,0.81295c0,0 -3.93911,-2.1326 -3.25268,-4.61994z" stroke="none"/><path d="M237.38625,167.59879c1.61617,-1.9205 1.20219,-6.36508 1.20219,-6.36508c0,0 3.89158,2.98853 2.80757,5.51888c-1.09327,2.55195 -0.00621,6.28154 -0.00621,6.28154c0,0 -0.96543,-0.0896 -1.5159,-0.10474c-0.50155,-0.01379 -1.45862,0.22501 -1.45862,0.22501c0,0 -2.69045,-3.58135 -1.02902,-5.55562z" stroke="none"/></g><path d="M257.18516,152.26933v0v0v0z" fill="#000000" stroke="#000000" stroke-width="1.5" stroke-linecap="butt"/><path d="M259.48754,179.76814c0,-0.41422 0.33578,-0.75 0.75,-0.75c0.41422,0 0.75,0.33578 0.75,0.75c0,0.41422 -0.33578,0.75 -0.75,0.75c-0.41422,0 -0.75,-0.33578 -0.75,-0.75z" fill="#000000" stroke="#000000" stroke-width="1.5" stroke-linecap="butt"/><path d="M265.38754,179.66814c0,-0.41422 0.33578,-0.75 0.75,-0.75c0.41422,0 0.75,0.33578 0.75,0.75c0,0.41422 -0.33578,0.75 -0.75,0.75c-0.41422,0 -0.75,-0.33578 -0.75,-0.75z" fill="#000000" stroke="#000000" stroke-width="1.5" stroke-linecap="butt"/><path d="M276.792,172.95165c0,0 0.90026,3.39599 1.80993,4.47591c1.03171,1.22482 3.58181,2.33597 3.58181,2.33597c0,0 -2.61829,1.14238 -3.54247,2.35045c-0.96929,1.26702 -1.84544,4.48994 -1.84544,4.48994c0,0 -0.83394,-3.32853 -1.79816,-4.54953c-0.9302,-1.17792 -3.53422,-2.27214 -3.53422,-2.27214c0,0 2.57372,-1.05431 3.51578,-2.28702c0.88938,-1.16378 1.81278,-4.54357 1.81278,-4.54357z" fill="#000000" stroke="#000000" stroke-width="0.5" stroke-linecap="round"/><path d="M285.8017,179.93397h15" fill="none" stroke="#000000" stroke-width="1.5" stroke-linecap="round"/><path d="M306.14105,176.57697c0,0 0.45238,1.70649 0.90949,2.24915c0.51844,0.61547 1.79986,1.17383 1.79986,1.17383c0,0 -1.31569,0.57405 -1.7801,1.1811c-0.48707,0.63668 -0.92733,2.2562 -0.92733,2.2562c0,0 -0.41906,-1.67259 -0.90358,-2.28614c-0.46743,-0.5919 -1.77595,-1.14175 -1.77595,-1.14175c0,0 1.2933,-0.52979 1.76668,-1.14923c0.44692,-0.5848 0.91092,-2.28315 0.91092,-2.28315z" fill="#000000" stroke="#000000" stroke-width="0.5" stroke-linecap="round"/><path d="M311.6542,180.10147c0,-0.41422 0.33578,-0.75 0.75,-0.75c0.41422,0 0.75,0.33578 0.75,0.75c0,0.41422 -0.33578,0.75 -0.75,0.75c-0.41422,0 -0.75,-0.33578 -0.75,-0.75z" fill="#000000" stroke="#000000" stroke-width="1.5" stroke-linecap="butt"/><path d="M317.5542,180.00147c0,-0.41422 0.33578,-0.75 0.75,-0.75c0.41422,0 0.75,0.33578 0.75,0.75c0,0.41422 -0.33578,0.75 -0.75,0.75c-0.41422,0 -0.75,-0.33578 -0.75,-0.75z" fill="#000000" stroke="#000000" stroke-width="1.5" stroke-linecap="butt"/><path d="M323.32087,179.93481c0,-0.41422 0.33578,-0.75 0.75,-0.75c0.41422,0 0.75,0.33578 0.75,0.75c0,0.41422 -0.33578,0.75 -0.75,0.75c-0.41422,0 -0.75,-0.33578 -0.75,-0.75z" fill="#000000" stroke="#000000" stroke-width="1.5" stroke-linecap="butt"/><path d="M329.22087,179.83481c0,-0.41422 0.33578,-0.75 0.75,-0.75c0.41422,0 0.75,0.33578 0.75,0.75c0,0.41422 -0.33578,0.75 -0.75,0.75c-0.41422,0 -0.75,-0.33578 -0.75,-0.75z" fill="#000000" stroke="#000000" stroke-width="1.5" stroke-linecap="butt"/><path d="M219.47087,180.68481c-0.41422,0 -0.75,-0.33578 -0.75,-0.75c0,-0.41422 0.33578,-0.75 0.75,-0.75c0.41422,0 0.75,0.33578 0.75,0.75c0,0.41422 -0.33578,0.75 -0.75,0.75z" data-paper-data="{&quot;index&quot;:null}" fill="#000000" stroke="#000000" stroke-width="1.5" stroke-linecap="butt"/><path d="M213.57087,180.58481c-0.41422,0 -0.75,-0.33578 -0.75,-0.75c0,-0.41422 0.33578,-0.75 0.75,-0.75c0.41422,0 0.75,0.33578 0.75,0.75c0,0.41422 -0.33578,0.75 -0.75,0.75z" data-paper-data="{&quot;index&quot;:null}" fill="#000000" stroke="#000000" stroke-width="1.5" stroke-linecap="butt"/><path d="M202.9164,173.11832c0,0 0.92339,3.37979 1.81278,4.54357c0.94206,1.23271 3.51578,2.28703 3.51578,2.28703c0,0 -2.60402,1.09422 -3.53422,2.27214c-0.96422,1.221 -1.79816,4.54953 -1.79816,4.54953c0,0 -0.87614,-3.22292 -1.84544,-4.48994c-0.92419,-1.20807 -3.54248,-2.35045 -3.54248,-2.35045c0,0 2.55009,-1.11114 3.58181,-2.33596c0.90967,-1.07993 1.80993,-4.47591 1.80993,-4.47591z" data-paper-data="{&quot;index&quot;:null}" fill="#000000" stroke="#000000" stroke-width="0.5" stroke-linecap="round"/><path d="M178.9067,180.10064h15" data-paper-data="{&quot;index&quot;:null}" fill="none" stroke="#000000" stroke-width="1.5" stroke-linecap="round"/><path d="M173.56735,176.74364c0,0 0.46401,1.69835 0.91093,2.28315c0.47339,0.61944 1.76668,1.14923 1.76668,1.14923c0,0 -1.30853,0.54985 -1.77595,1.14175c-0.48452,0.61355 -0.90358,2.28615 -0.90358,2.28615c0,0 -0.44027,-1.61952 -0.92734,-2.2562c-0.4644,-0.60706 -1.78009,-1.18111 -1.78009,-1.18111c0,0 1.28142,-0.55835 1.79986,-1.17382c0.45711,-0.54266 0.90949,-2.24915 0.90949,-2.24915z" data-paper-data="{&quot;index&quot;:null}" fill="#000000" stroke="#000000" stroke-width="0.5" stroke-linecap="round"/><path d="M167.3042,181.01814c-0.41422,0 -0.75,-0.33578 -0.75,-0.75c0,-0.41422 0.33578,-0.75 0.75,-0.75c0.41422,0 0.75,0.33578 0.75,0.75c0,0.41422 -0.33578,0.75 -0.75,0.75z" data-paper-data="{&quot;index&quot;:null}" fill="#000000" stroke="#000000" stroke-width="1.5" stroke-linecap="butt"/><path d="M161.4042,180.91814c-0.41422,0 -0.75,-0.33578 -0.75,-0.75c0,-0.41422 0.33578,-0.75 0.75,-0.75c0.41422,0 0.75,0.33578 0.75,0.75c0,0.41422 -0.33578,0.75 -0.75,0.75z" data-paper-data="{&quot;index&quot;:null}" fill="#000000" stroke="#000000" stroke-width="1.5" stroke-linecap="butt"/><path d="M155.63753,180.85148c-0.41422,0 -0.75,-0.33578 -0.75,-0.75c0,-0.41422 0.33578,-0.75 0.75,-0.75c0.41422,0 0.75,0.33578 0.75,0.75c0,0.41422 -0.33578,0.75 -0.75,0.75z" data-paper-data="{&quot;index&quot;:null}" fill="#000000" stroke="#000000" stroke-width="1.5" stroke-linecap="butt"/><path d="M149.73754,180.75148c-0.41422,0 -0.75,-0.33578 -0.75,-0.75c0,-0.41422 0.33578,-0.75 0.75,-0.75c0.41422,0 0.75,0.33578 0.75,0.75c0,0.41422 -0.33578,0.75 -0.75,0.75z" data-paper-data="{&quot;index&quot;:null}" fill="#000000" stroke="#000000" stroke-width="1.5" stroke-linecap="butt"/></g></g></svg>